# xmcd
#
# Track frame offsets:
#	150
#	13475
#	23847
#	36699
#	46540
#	56795
#	67600
#	76322
#	89747
#	101504
#
# Disc length: 1509 seconds
#
# Revision: 1
# Processed by: cddbd v1.5.1PL0 Copyright (c) Steve Scherf et al.
# Submitted via: audiograbber 1.83.01
#
DISCID=7e05e30a
DTITLE=Mark Grothier - 1889 - 1989 100th Anniversary - North Dakota Centennial
DYEAR=1900
DGENRE=Contemporary Country
TTITLE0=The Medicine Hole
TTITLE1=North Dakota Country
TTITLE2=I've Been Everywhere
TTITLE3=The Flasher Country Concerto In Eb
TTITLE4=Folsom Prison Blues
TTITLE5=The Ghost Of The Pony Express
TTITLE6=North Dakota Lad
TTITLE7=Medora
TTITLE8=The Biggest Fight In History
TTITLE9=The Ballad Of Virgil Hill
EXTD=
EXTT0=
EXTT1=
EXTT2=
EXTT3=
EXTT4=
EXTT5=
EXTT6=
EXTT7=
EXTT8=
EXTT9=
PLAYORDER=
